<?xml version="1.0" encoding="UTF-8" standalone="no"?>
<!-- Created with matplotlib (https://matplotlib.org/) -->

<svg
   xmlns:dc="http://purl.org/dc/elements/1.1/"
   xmlns:cc="http://creativecommons.org/ns#"
   xmlns:rdf="http://www.w3.org/1999/02/22-rdf-syntax-ns#"
   xmlns:svg="http://www.w3.org/2000/svg"
   xmlns="http://www.w3.org/2000/svg"
   xmlns:xlink="http://www.w3.org/1999/xlink"
   xmlns:sodipodi="http://sodipodi.sourceforge.net/DTD/sodipodi-0.dtd"
   xmlns:inkscape="http://www.inkscape.org/namespaces/inkscape"
   height="288pt"
   version="1.1"
   viewBox="0 0 432 288"
   width="432pt"
   id="svg913"
   sodipodi:docname="Cumulative sum of explained variance.svg"
   inkscape:version="0.92.5 (2060ec1f9f, 2020-04-08)">
  <sodipodi:namedview
     pagecolor="#ffffff"
     bordercolor="#666666"
     borderopacity="1"
     objecttolerance="10"
     gridtolerance="10"
     guidetolerance="10"
     inkscape:pageopacity="0"
     inkscape:pageshadow="2"
     inkscape:window-width="3440"
     inkscape:window-height="1376"
     id="namedview915"
     showgrid="false"
     inkscape:zoom="2.4375"
     inkscape:cx="310.00083"
     inkscape:cy="201.07162"
     inkscape:window-x="0"
     inkscape:window-y="27"
     inkscape:window-maximized="1"
     inkscape:current-layer="figure_1-3" />
  <metadata
     id="metadata903">
    <rdf:RDF>
      <cc:Work>
        <dc:type
           rdf:resource="http://purl.org/dc/dcmitype/StillImage" />
        <dc:date>2021-04-08T19:31:04.750405</dc:date>
        <dc:format>image/svg+xml</dc:format>
        <dc:creator>
          <cc:Agent>
            <dc:title>Matplotlib v3.3.2, https://matplotlib.org/</dc:title>
          </cc:Agent>
        </dc:creator>
        <dc:title></dc:title>
      </cc:Work>
    </rdf:RDF>
  </metadata>
  <defs
     id="defs907">
    <style
       type="text/css"
       id="style905">*{stroke-linecap:butt;stroke-linejoin:round;}</style>
    <style
       id="style5201"
       type="text/css">*{stroke-linecap:butt;stroke-linejoin:round;}</style>
    <path
       style="stroke:#000000;stroke-width:0.8;"
       id="mfda7b0f0a4"
       d="M 0 0  L 0 3.5  " />
    <path
       id="DejaVuSans-48"
       d="M 31.78125 66.40625  Q 24.171875 66.40625 20.328125 58.90625  Q 16.5 51.421875 16.5 36.375  Q 16.5 21.390625 20.328125 13.890625  Q 24.171875 6.390625 31.78125 6.390625  Q 39.453125 6.390625 43.28125 13.890625  Q 47.125 21.390625 47.125 36.375  Q 47.125 51.421875 43.28125 58.90625  Q 39.453125 66.40625 31.78125 66.40625  z M 31.78125 74.21875  Q 44.046875 74.21875 50.515625 64.515625  Q 56.984375 54.828125 56.984375 36.375  Q 56.984375 17.96875 50.515625 8.265625  Q 44.046875 -1.421875 31.78125 -1.421875  Q 19.53125 -1.421875 13.0625 8.265625  Q 6.59375 17.96875 6.59375 36.375  Q 6.59375 54.828125 13.0625 64.515625  Q 19.53125 74.21875 31.78125 74.21875  z " />
    <path
       id="DejaVuSans-50"
       d="M 19.1875 8.296875  L 53.609375 8.296875  L 53.609375 0  L 7.328125 0  L 7.328125 8.296875  Q 12.9375 14.109375 22.625 23.890625  Q 32.328125 33.6875 34.8125 36.53125  Q 39.546875 41.84375 41.421875 45.53125  Q 43.3125 49.21875 43.3125 52.78125  Q 43.3125 58.59375 39.234375 62.25  Q 35.15625 65.921875 28.609375 65.921875  Q 23.96875 65.921875 18.8125 64.3125  Q 13.671875 62.703125 7.8125 59.421875  L 7.8125 69.390625  Q 13.765625 71.78125 18.9375 73  Q 24.125 74.21875 28.421875 74.21875  Q 39.75 74.21875 46.484375 68.546875  Q 53.21875 62.890625 53.21875 53.421875  Q 53.21875 48.921875 51.53125 44.890625  Q 49.859375 40.875 45.40625 35.40625  Q 44.1875 33.984375 37.640625 27.21875  Q 31.109375 20.453125 19.1875 8.296875  z " />
    <path
       id="DejaVuSans-52"
       d="M 37.796875 64.3125  L 12.890625 25.390625  L 37.796875 25.390625  z M 35.203125 72.90625  L 47.609375 72.90625  L 47.609375 25.390625  L 58.015625 25.390625  L 58.015625 17.1875  L 47.609375 17.1875  L 47.609375 0  L 37.796875 0  L 37.796875 17.1875  L 4.890625 17.1875  L 4.890625 26.703125  z " />
    <path
       id="DejaVuSans-54"
       d="M 33.015625 40.375  Q 26.375 40.375 22.484375 35.828125  Q 18.609375 31.296875 18.609375 23.390625  Q 18.609375 15.53125 22.484375 10.953125  Q 26.375 6.390625 33.015625 6.390625  Q 39.65625 6.390625 43.53125 10.953125  Q 47.40625 15.53125 47.40625 23.390625  Q 47.40625 31.296875 43.53125 35.828125  Q 39.65625 40.375 33.015625 40.375  z M 52.59375 71.296875  L 52.59375 62.3125  Q 48.875 64.0625 45.09375 64.984375  Q 41.3125 65.921875 37.59375 65.921875  Q 27.828125 65.921875 22.671875 59.328125  Q 17.53125 52.734375 16.796875 39.40625  Q 19.671875 43.65625 24.015625 45.921875  Q 28.375 48.1875 33.59375 48.1875  Q 44.578125 48.1875 50.953125 41.515625  Q 57.328125 34.859375 57.328125 23.390625  Q 57.328125 12.15625 50.6875 5.359375  Q 44.046875 -1.421875 33.015625 -1.421875  Q 20.359375 -1.421875 13.671875 8.265625  Q 6.984375 17.96875 6.984375 36.375  Q 6.984375 53.65625 15.1875 63.9375  Q 23.390625 74.21875 37.203125 74.21875  Q 40.921875 74.21875 44.703125 73.484375  Q 48.484375 72.75 52.59375 71.296875  z " />
    <path
       id="DejaVuSans-56"
       d="M 31.78125 34.625  Q 24.75 34.625 20.71875 30.859375  Q 16.703125 27.09375 16.703125 20.515625  Q 16.703125 13.921875 20.71875 10.15625  Q 24.75 6.390625 31.78125 6.390625  Q 38.8125 6.390625 42.859375 10.171875  Q 46.921875 13.96875 46.921875 20.515625  Q 46.921875 27.09375 42.890625 30.859375  Q 38.875 34.625 31.78125 34.625  z M 21.921875 38.8125  Q 15.578125 40.375 12.03125 44.71875  Q 8.5 49.078125 8.5 55.328125  Q 8.5 64.0625 14.71875 69.140625  Q 20.953125 74.21875 31.78125 74.21875  Q 42.671875 74.21875 48.875 69.140625  Q 55.078125 64.0625 55.078125 55.328125  Q 55.078125 49.078125 51.53125 44.71875  Q 48 40.375 41.703125 38.8125  Q 48.828125 37.15625 52.796875 32.3125  Q 56.78125 27.484375 56.78125 20.515625  Q 56.78125 9.90625 50.3125 4.234375  Q 43.84375 -1.421875 31.78125 -1.421875  Q 19.734375 -1.421875 13.25 4.234375  Q 6.78125 9.90625 6.78125 20.515625  Q 6.78125 27.484375 10.78125 32.3125  Q 14.796875 37.15625 21.921875 38.8125  z M 18.3125 54.390625  Q 18.3125 48.734375 21.84375 45.5625  Q 25.390625 42.390625 31.78125 42.390625  Q 38.140625 42.390625 41.71875 45.5625  Q 45.3125 48.734375 45.3125 54.390625  Q 45.3125 60.0625 41.71875 63.234375  Q 38.140625 66.40625 31.78125 66.40625  Q 25.390625 66.40625 21.84375 63.234375  Q 18.3125 60.0625 18.3125 54.390625  z " />
    <path
       id="DejaVuSans-78"
       d="M 9.8125 72.90625  L 23.09375 72.90625  L 55.421875 11.921875  L 55.421875 72.90625  L 64.984375 72.90625  L 64.984375 0  L 51.703125 0  L 19.390625 60.984375  L 19.390625 0  L 9.8125 0  z " />
    <path
       id="DejaVuSans-117"
       d="M 8.5 21.578125  L 8.5 54.6875  L 17.484375 54.6875  L 17.484375 21.921875  Q 17.484375 14.15625 20.5 10.265625  Q 23.53125 6.390625 29.59375 6.390625  Q 36.859375 6.390625 41.078125 11.03125  Q 45.3125 15.671875 45.3125 23.6875  L 45.3125 54.6875  L 54.296875 54.6875  L 54.296875 0  L 45.3125 0  L 45.3125 8.40625  Q 42.046875 3.421875 37.71875 1  Q 33.40625 -1.421875 27.6875 -1.421875  Q 18.265625 -1.421875 13.375 4.4375  Q 8.5 10.296875 8.5 21.578125  z M 31.109375 56  z " />
    <path
       id="DejaVuSans-109"
       d="M 52 44.1875  Q 55.375 50.25 60.0625 53.125  Q 64.75 56 71.09375 56  Q 79.640625 56 84.28125 50.015625  Q 88.921875 44.046875 88.921875 33.015625  L 88.921875 0  L 79.890625 0  L 79.890625 32.71875  Q 79.890625 40.578125 77.09375 44.375  Q 74.3125 48.1875 68.609375 48.1875  Q 61.625 48.1875 57.5625 43.546875  Q 53.515625 38.921875 53.515625 30.90625  L 53.515625 0  L 44.484375 0  L 44.484375 32.71875  Q 44.484375 40.625 41.703125 44.40625  Q 38.921875 48.1875 33.109375 48.1875  Q 26.21875 48.1875 22.15625 43.53125  Q 18.109375 38.875 18.109375 30.90625  L 18.109375 0  L 9.078125 0  L 9.078125 54.6875  L 18.109375 54.6875  L 18.109375 46.1875  Q 21.1875 51.21875 25.484375 53.609375  Q 29.78125 56 35.6875 56  Q 41.65625 56 45.828125 52.96875  Q 50 49.953125 52 44.1875  z " />
    <path
       id="DejaVuSans-98"
       d="M 48.6875 27.296875  Q 48.6875 37.203125 44.609375 42.84375  Q 40.53125 48.484375 33.40625 48.484375  Q 26.265625 48.484375 22.1875 42.84375  Q 18.109375 37.203125 18.109375 27.296875  Q 18.109375 17.390625 22.1875 11.75  Q 26.265625 6.109375 33.40625 6.109375  Q 40.53125 6.109375 44.609375 11.75  Q 48.6875 17.390625 48.6875 27.296875  z M 18.109375 46.390625  Q 20.953125 51.265625 25.265625 53.625  Q 29.59375 56 35.59375 56  Q 45.5625 56 51.78125 48.09375  Q 58.015625 40.1875 58.015625 27.296875  Q 58.015625 14.40625 51.78125 6.484375  Q 45.5625 -1.421875 35.59375 -1.421875  Q 29.59375 -1.421875 25.265625 0.953125  Q 20.953125 3.328125 18.109375 8.203125  L 18.109375 0  L 9.078125 0  L 9.078125 75.984375  L 18.109375 75.984375  z " />
    <path
       id="DejaVuSans-101"
       d="M 56.203125 29.59375  L 56.203125 25.203125  L 14.890625 25.203125  Q 15.484375 15.921875 20.484375 11.0625  Q 25.484375 6.203125 34.421875 6.203125  Q 39.59375 6.203125 44.453125 7.46875  Q 49.3125 8.734375 54.109375 11.28125  L 54.109375 2.78125  Q 49.265625 0.734375 44.1875 -0.34375  Q 39.109375 -1.421875 33.890625 -1.421875  Q 20.796875 -1.421875 13.15625 6.1875  Q 5.515625 13.8125 5.515625 26.8125  Q 5.515625 40.234375 12.765625 48.109375  Q 20.015625 56 32.328125 56  Q 43.359375 56 49.78125 48.890625  Q 56.203125 41.796875 56.203125 29.59375  z M 47.21875 32.234375  Q 47.125 39.59375 43.09375 43.984375  Q 39.0625 48.390625 32.421875 48.390625  Q 24.90625 48.390625 20.390625 44.140625  Q 15.875 39.890625 15.1875 32.171875  z " />
    <path
       id="DejaVuSans-114"
       d="M 41.109375 46.296875  Q 39.59375 47.171875 37.8125 47.578125  Q 36.03125 48 33.890625 48  Q 26.265625 48 22.1875 43.046875  Q 18.109375 38.09375 18.109375 28.8125  L 18.109375 0  L 9.078125 0  L 9.078125 54.6875  L 18.109375 54.6875  L 18.109375 46.1875  Q 20.953125 51.171875 25.484375 53.578125  Q 30.03125 56 36.53125 56  Q 37.453125 56 38.578125 55.875  Q 39.703125 55.765625 41.0625 55.515625  z " />
    <path
       id="DejaVuSans-32" />
    <path
       id="DejaVuSans-111"
       d="M 30.609375 48.390625  Q 23.390625 48.390625 19.1875 42.75  Q 14.984375 37.109375 14.984375 27.296875  Q 14.984375 17.484375 19.15625 11.84375  Q 23.34375 6.203125 30.609375 6.203125  Q 37.796875 6.203125 41.984375 11.859375  Q 46.1875 17.53125 46.1875 27.296875  Q 46.1875 37.015625 41.984375 42.703125  Q 37.796875 48.390625 30.609375 48.390625  z M 30.609375 56  Q 42.328125 56 49.015625 48.375  Q 55.71875 40.765625 55.71875 27.296875  Q 55.71875 13.875 49.015625 6.21875  Q 42.328125 -1.421875 30.609375 -1.421875  Q 18.84375 -1.421875 12.171875 6.21875  Q 5.515625 13.875 5.515625 27.296875  Q 5.515625 40.765625 12.171875 48.375  Q 18.84375 56 30.609375 56  z " />
    <path
       id="DejaVuSans-102"
       d="M 37.109375 75.984375  L 37.109375 68.5  L 28.515625 68.5  Q 23.6875 68.5 21.796875 66.546875  Q 19.921875 64.59375 19.921875 59.515625  L 19.921875 54.6875  L 34.71875 54.6875  L 34.71875 47.703125  L 19.921875 47.703125  L 19.921875 0  L 10.890625 0  L 10.890625 47.703125  L 2.296875 47.703125  L 2.296875 54.6875  L 10.890625 54.6875  L 10.890625 58.5  Q 10.890625 67.625 15.140625 71.796875  Q 19.390625 75.984375 28.609375 75.984375  z " />
    <path
       id="DejaVuSans-80"
       d="M 19.671875 64.796875  L 19.671875 37.40625  L 32.078125 37.40625  Q 38.96875 37.40625 42.71875 40.96875  Q 46.484375 44.53125 46.484375 51.125  Q 46.484375 57.671875 42.71875 61.234375  Q 38.96875 64.796875 32.078125 64.796875  z M 9.8125 72.90625  L 32.078125 72.90625  Q 44.34375 72.90625 50.609375 67.359375  Q 56.890625 61.8125 56.890625 51.125  Q 56.890625 40.328125 50.609375 34.8125  Q 44.34375 29.296875 32.078125 29.296875  L 19.671875 29.296875  L 19.671875 0  L 9.8125 0  z " />
    <path
       id="DejaVuSans-67"
       d="M 64.40625 67.28125  L 64.40625 56.890625  Q 59.421875 61.53125 53.78125 63.8125  Q 48.140625 66.109375 41.796875 66.109375  Q 29.296875 66.109375 22.65625 58.46875  Q 16.015625 50.828125 16.015625 36.375  Q 16.015625 21.96875 22.65625 14.328125  Q 29.296875 6.6875 41.796875 6.6875  Q 48.140625 6.6875 53.78125 8.984375  Q 59.421875 11.28125 64.40625 15.921875  L 64.40625 5.609375  Q 59.234375 2.09375 53.4375 0.328125  Q 47.65625 -1.421875 41.21875 -1.421875  Q 24.65625 -1.421875 15.125 8.703125  Q 5.609375 18.84375 5.609375 36.375  Q 5.609375 53.953125 15.125 64.078125  Q 24.65625 74.21875 41.21875 74.21875  Q 47.75 74.21875 53.53125 72.484375  Q 59.328125 70.75 64.40625 67.28125  z " />
    <path
       id="DejaVuSans-65"
       d="M 34.1875 63.1875  L 20.796875 26.90625  L 47.609375 26.90625  z M 28.609375 72.90625  L 39.796875 72.90625  L 67.578125 0  L 57.328125 0  L 50.6875 18.703125  L 17.828125 18.703125  L 11.1875 0  L 0.78125 0  z " />
    <path
       id="DejaVuSans-112"
       d="M 18.109375 8.203125  L 18.109375 -20.796875  L 9.078125 -20.796875  L 9.078125 54.6875  L 18.109375 54.6875  L 18.109375 46.390625  Q 20.953125 51.265625 25.265625 53.625  Q 29.59375 56 35.59375 56  Q 45.5625 56 51.78125 48.09375  Q 58.015625 40.1875 58.015625 27.296875  Q 58.015625 14.40625 51.78125 6.484375  Q 45.5625 -1.421875 35.59375 -1.421875  Q 29.59375 -1.421875 25.265625 0.953125  Q 20.953125 3.328125 18.109375 8.203125  z M 48.6875 27.296875  Q 48.6875 37.203125 44.609375 42.84375  Q 40.53125 48.484375 33.40625 48.484375  Q 26.265625 48.484375 22.1875 42.84375  Q 18.109375 37.203125 18.109375 27.296875  Q 18.109375 17.390625 22.1875 11.75  Q 26.265625 6.109375 33.40625 6.109375  Q 40.53125 6.109375 44.609375 11.75  Q 48.6875 17.390625 48.6875 27.296875  z " />
    <path
       id="DejaVuSans-110"
       d="M 54.890625 33.015625  L 54.890625 0  L 45.90625 0  L 45.90625 32.71875  Q 45.90625 40.484375 42.875 44.328125  Q 39.84375 48.1875 33.796875 48.1875  Q 26.515625 48.1875 22.3125 43.546875  Q 18.109375 38.921875 18.109375 30.90625  L 18.109375 0  L 9.078125 0  L 9.078125 54.6875  L 18.109375 54.6875  L 18.109375 46.1875  Q 21.34375 51.125 25.703125 53.5625  Q 30.078125 56 35.796875 56  Q 45.21875 56 50.046875 50.171875  Q 54.890625 44.34375 54.890625 33.015625  z " />
    <path
       id="DejaVuSans-116"
       d="M 18.3125 70.21875  L 18.3125 54.6875  L 36.8125 54.6875  L 36.8125 47.703125  L 18.3125 47.703125  L 18.3125 18.015625  Q 18.3125 11.328125 20.140625 9.421875  Q 21.96875 7.515625 27.59375 7.515625  L 36.8125 7.515625  L 36.8125 0  L 27.59375 0  Q 17.1875 0 13.234375 3.875  Q 9.28125 7.765625 9.28125 18.015625  L 9.28125 47.703125  L 2.6875 47.703125  L 2.6875 54.6875  L 9.28125 54.6875  L 9.28125 70.21875  z " />
    <path
       id="DejaVuSans-115"
       d="M 44.28125 53.078125  L 44.28125 44.578125  Q 40.484375 46.53125 36.375 47.5  Q 32.28125 48.484375 27.875 48.484375  Q 21.1875 48.484375 17.84375 46.4375  Q 14.5 44.390625 14.5 40.28125  Q 14.5 37.15625 16.890625 35.375  Q 19.28125 33.59375 26.515625 31.984375  L 29.59375 31.296875  Q 39.15625 29.25 43.1875 25.515625  Q 47.21875 21.78125 47.21875 15.09375  Q 47.21875 7.46875 41.1875 3.015625  Q 35.15625 -1.421875 24.609375 -1.421875  Q 20.21875 -1.421875 15.453125 -0.5625  Q 10.6875 0.296875 5.421875 2  L 5.421875 11.28125  Q 10.40625 8.6875 15.234375 7.390625  Q 20.0625 6.109375 24.8125 6.109375  Q 31.15625 6.109375 34.5625 8.28125  Q 37.984375 10.453125 37.984375 14.40625  Q 37.984375 18.0625 35.515625 20.015625  Q 33.0625 21.96875 24.703125 23.78125  L 21.578125 24.515625  Q 13.234375 26.265625 9.515625 29.90625  Q 5.8125 33.546875 5.8125 39.890625  Q 5.8125 47.609375 11.28125 51.796875  Q 16.75 56 26.8125 56  Q 31.78125 56 36.171875 55.265625  Q 40.578125 54.546875 44.28125 53.078125  z " />
    <path
       style="stroke:#000000;stroke-width:0.8;"
       id="m02364e62c7"
       d="M 0 0  L -3.5 0  " />
    <path
       id="DejaVuSans-46"
       d="M 10.6875 12.40625  L 21 12.40625  L 21 0  L 10.6875 0  z " />
    <path
       id="DejaVuSans-55"
       d="M 8.203125 72.90625  L 55.078125 72.90625  L 55.078125 68.703125  L 28.609375 0  L 18.3125 0  L 43.21875 64.59375  L 8.203125 64.59375  z " />
    <path
       id="DejaVuSans-57"
       d="M 10.984375 1.515625  L 10.984375 10.5  Q 14.703125 8.734375 18.5 7.8125  Q 22.3125 6.890625 25.984375 6.890625  Q 35.75 6.890625 40.890625 13.453125  Q 46.046875 20.015625 46.78125 33.40625  Q 43.953125 29.203125 39.59375 26.953125  Q 35.25 24.703125 29.984375 24.703125  Q 19.046875 24.703125 12.671875 31.3125  Q 6.296875 37.9375 6.296875 49.421875  Q 6.296875 60.640625 12.9375 67.421875  Q 19.578125 74.21875 30.609375 74.21875  Q 43.265625 74.21875 49.921875 64.515625  Q 56.59375 54.828125 56.59375 36.375  Q 56.59375 19.140625 48.40625 8.859375  Q 40.234375 -1.421875 26.421875 -1.421875  Q 22.703125 -1.421875 18.890625 -0.6875  Q 15.09375 0.046875 10.984375 1.515625  z M 30.609375 32.421875  Q 37.25 32.421875 41.125 36.953125  Q 45.015625 41.5 45.015625 49.421875  Q 45.015625 57.28125 41.125 61.84375  Q 37.25 66.40625 30.609375 66.40625  Q 23.96875 66.40625 20.09375 61.84375  Q 16.21875 57.28125 16.21875 49.421875  Q 16.21875 41.5 20.09375 36.953125  Q 23.96875 32.421875 30.609375 32.421875  z " />
    <path
       id="DejaVuSans-49"
       d="M 12.40625 8.296875  L 28.515625 8.296875  L 28.515625 63.921875  L 10.984375 60.40625  L 10.984375 69.390625  L 28.421875 72.90625  L 38.28125 72.90625  L 38.28125 8.296875  L 54.390625 8.296875  L 54.390625 0  L 12.40625 0  z " />
    <path
       id="DejaVuSans-86"
       d="M 28.609375 0  L 0.78125 72.90625  L 11.078125 72.90625  L 34.1875 11.53125  L 57.328125 72.90625  L 67.578125 72.90625  L 39.796875 0  z " />
    <path
       id="DejaVuSans-97"
       d="M 34.28125 27.484375  Q 23.390625 27.484375 19.1875 25  Q 14.984375 22.515625 14.984375 16.5  Q 14.984375 11.71875 18.140625 8.90625  Q 21.296875 6.109375 26.703125 6.109375  Q 34.1875 6.109375 38.703125 11.40625  Q 43.21875 16.703125 43.21875 25.484375  L 43.21875 27.484375  z M 52.203125 31.203125  L 52.203125 0  L 43.21875 0  L 43.21875 8.296875  Q 40.140625 3.328125 35.546875 0.953125  Q 30.953125 -1.421875 24.3125 -1.421875  Q 15.921875 -1.421875 10.953125 3.296875  Q 6 8.015625 6 15.921875  Q 6 25.140625 12.171875 29.828125  Q 18.359375 34.515625 30.609375 34.515625  L 43.21875 34.515625  L 43.21875 35.40625  Q 43.21875 41.609375 39.140625 45  Q 35.0625 48.390625 27.6875 48.390625  Q 23 48.390625 18.546875 47.265625  Q 14.109375 46.140625 10.015625 43.890625  L 10.015625 52.203125  Q 14.9375 54.109375 19.578125 55.046875  Q 24.21875 56 28.609375 56  Q 40.484375 56 46.34375 49.84375  Q 52.203125 43.703125 52.203125 31.203125  z " />
    <path
       id="DejaVuSans-105"
       d="M 9.421875 54.6875  L 18.40625 54.6875  L 18.40625 0  L 9.421875 0  z M 9.421875 75.984375  L 18.40625 75.984375  L 18.40625 64.59375  L 9.421875 64.59375  z " />
    <path
       id="DejaVuSans-99"
       d="M 48.78125 52.59375  L 48.78125 44.1875  Q 44.96875 46.296875 41.140625 47.34375  Q 37.3125 48.390625 33.40625 48.390625  Q 24.65625 48.390625 19.8125 42.84375  Q 14.984375 37.3125 14.984375 27.296875  Q 14.984375 17.28125 19.8125 11.734375  Q 24.65625 6.203125 33.40625 6.203125  Q 37.3125 6.203125 41.140625 7.25  Q 44.96875 8.296875 48.78125 10.40625  L 48.78125 2.09375  Q 45.015625 0.34375 40.984375 -0.53125  Q 36.96875 -1.421875 32.421875 -1.421875  Q 20.0625 -1.421875 12.78125 6.34375  Q 5.515625 14.109375 5.515625 27.296875  Q 5.515625 40.671875 12.859375 48.328125  Q 20.21875 56 33.015625 56  Q 37.15625 56 41.109375 55.140625  Q 45.0625 54.296875 48.78125 52.59375  z " />
    <path
       id="DejaVuSans-69"
       d="M 9.8125 72.90625  L 55.90625 72.90625  L 55.90625 64.59375  L 19.671875 64.59375  L 19.671875 43.015625  L 54.390625 43.015625  L 54.390625 34.71875  L 19.671875 34.71875  L 19.671875 8.296875  L 56.78125 8.296875  L 56.78125 0  L 9.8125 0  z " />
    <path
       id="DejaVuSans-120"
       d="M 54.890625 54.6875  L 35.109375 28.078125  L 55.90625 0  L 45.3125 0  L 29.390625 21.484375  L 13.484375 0  L 2.875 0  L 24.125 28.609375  L 4.6875 54.6875  L 15.28125 54.6875  L 29.78125 35.203125  L 44.28125 54.6875  z " />
    <path
       id="DejaVuSans-108"
       d="M 9.421875 75.984375  L 18.40625 75.984375  L 18.40625 0  L 9.421875 0  z " />
    <path
       id="DejaVuSans-100"
       d="M 45.40625 46.390625  L 45.40625 75.984375  L 54.390625 75.984375  L 54.390625 0  L 45.40625 0  L 45.40625 8.203125  Q 42.578125 3.328125 38.25 0.953125  Q 33.9375 -1.421875 27.875 -1.421875  Q 17.96875 -1.421875 11.734375 6.484375  Q 5.515625 14.40625 5.515625 27.296875  Q 5.515625 40.1875 11.734375 48.09375  Q 17.96875 56 27.875 56  Q 33.9375 56 38.25 53.625  Q 42.578125 51.265625 45.40625 46.390625  z M 14.796875 27.296875  Q 14.796875 17.390625 18.875 11.75  Q 22.953125 6.109375 30.078125 6.109375  Q 37.203125 6.109375 41.296875 11.75  Q 45.40625 17.390625 45.40625 27.296875  Q 45.40625 37.203125 41.296875 42.84375  Q 37.203125 48.484375 30.078125 48.484375  Q 22.953125 48.484375 18.875 42.84375  Q 14.796875 37.203125 14.796875 27.296875  z " />
    <clipPath
       id="p42534da4fb">
      <rect
         id="rect5511"
         y="34.56"
         x="54"
         width="334.8"
         height="217.44" />
    </clipPath>
    <style
       id="style5787"
       type="text/css">*{stroke-linecap:butt;stroke-linejoin:round;}</style>
    <path
       style="stroke:#000000;stroke-width:0.8;"
       id="mb03f2c7537"
       d="M 0 0  L 0 3.5  " />
    <path
       id="DejaVuSans-50-7"
       d="M 19.1875 8.296875  L 53.609375 8.296875  L 53.609375 0  L 7.328125 0  L 7.328125 8.296875  Q 12.9375 14.109375 22.625 23.890625  Q 32.328125 33.6875 34.8125 36.53125  Q 39.546875 41.84375 41.421875 45.53125  Q 43.3125 49.21875 43.3125 52.78125  Q 43.3125 58.59375 39.234375 62.25  Q 35.15625 65.921875 28.609375 65.921875  Q 23.96875 65.921875 18.8125 64.3125  Q 13.671875 62.703125 7.8125 59.421875  L 7.8125 69.390625  Q 13.765625 71.78125 18.9375 73  Q 24.125 74.21875 28.421875 74.21875  Q 39.75 74.21875 46.484375 68.546875  Q 53.21875 62.890625 53.21875 53.421875  Q 53.21875 48.921875 51.53125 44.890625  Q 49.859375 40.875 45.40625 35.40625  Q 44.1875 33.984375 37.640625 27.21875  Q 31.109375 20.453125 19.1875 8.296875  z " />
    <path
       id="DejaVuSans-52-5"
       d="M 37.796875 64.3125  L 12.890625 25.390625  L 37.796875 25.390625  z M 35.203125 72.90625  L 47.609375 72.90625  L 47.609375 25.390625  L 58.015625 25.390625  L 58.015625 17.1875  L 47.609375 17.1875  L 47.609375 0  L 37.796875 0  L 37.796875 17.1875  L 4.890625 17.1875  L 4.890625 26.703125  z " />
    <path
       id="DejaVuSans-54-3"
       d="M 33.015625 40.375  Q 26.375 40.375 22.484375 35.828125  Q 18.609375 31.296875 18.609375 23.390625  Q 18.609375 15.53125 22.484375 10.953125  Q 26.375 6.390625 33.015625 6.390625  Q 39.65625 6.390625 43.53125 10.953125  Q 47.40625 15.53125 47.40625 23.390625  Q 47.40625 31.296875 43.53125 35.828125  Q 39.65625 40.375 33.015625 40.375  z M 52.59375 71.296875  L 52.59375 62.3125  Q 48.875 64.0625 45.09375 64.984375  Q 41.3125 65.921875 37.59375 65.921875  Q 27.828125 65.921875 22.671875 59.328125  Q 17.53125 52.734375 16.796875 39.40625  Q 19.671875 43.65625 24.015625 45.921875  Q 28.375 48.1875 33.59375 48.1875  Q 44.578125 48.1875 50.953125 41.515625  Q 57.328125 34.859375 57.328125 23.390625  Q 57.328125 12.15625 50.6875 5.359375  Q 44.046875 -1.421875 33.015625 -1.421875  Q 20.359375 -1.421875 13.671875 8.265625  Q 6.984375 17.96875 6.984375 36.375  Q 6.984375 53.65625 15.1875 63.9375  Q 23.390625 74.21875 37.203125 74.21875  Q 40.921875 74.21875 44.703125 73.484375  Q 48.484375 72.75 52.59375 71.296875  z " />
    <path
       id="DejaVuSans-56-5"
       d="M 31.78125 34.625  Q 24.75 34.625 20.71875 30.859375  Q 16.703125 27.09375 16.703125 20.515625  Q 16.703125 13.921875 20.71875 10.15625  Q 24.75 6.390625 31.78125 6.390625  Q 38.8125 6.390625 42.859375 10.171875  Q 46.921875 13.96875 46.921875 20.515625  Q 46.921875 27.09375 42.890625 30.859375  Q 38.875 34.625 31.78125 34.625  z M 21.921875 38.8125  Q 15.578125 40.375 12.03125 44.71875  Q 8.5 49.078125 8.5 55.328125  Q 8.5 64.0625 14.71875 69.140625  Q 20.953125 74.21875 31.78125 74.21875  Q 42.671875 74.21875 48.875 69.140625  Q 55.078125 64.0625 55.078125 55.328125  Q 55.078125 49.078125 51.53125 44.71875  Q 48 40.375 41.703125 38.8125  Q 48.828125 37.15625 52.796875 32.3125  Q 56.78125 27.484375 56.78125 20.515625  Q 56.78125 9.90625 50.3125 4.234375  Q 43.84375 -1.421875 31.78125 -1.421875  Q 19.734375 -1.421875 13.25 4.234375  Q 6.78125 9.90625 6.78125 20.515625  Q 6.78125 27.484375 10.78125 32.3125  Q 14.796875 37.15625 21.921875 38.8125  z M 18.3125 54.390625  Q 18.3125 48.734375 21.84375 45.5625  Q 25.390625 42.390625 31.78125 42.390625  Q 38.140625 42.390625 41.71875 45.5625  Q 45.3125 48.734375 45.3125 54.390625  Q 45.3125 60.0625 41.71875 63.234375  Q 38.140625 66.40625 31.78125 66.40625  Q 25.390625 66.40625 21.84375 63.234375  Q 18.3125 60.0625 18.3125 54.390625  z " />
    <path
       id="DejaVuSans-49-6"
       d="M 12.40625 8.296875  L 28.515625 8.296875  L 28.515625 63.921875  L 10.984375 60.40625  L 10.984375 69.390625  L 28.421875 72.90625  L 38.28125 72.90625  L 38.28125 8.296875  L 54.390625 8.296875  L 54.390625 0  L 12.40625 0  z " />
    <path
       id="DejaVuSans-48-2"
       d="M 31.78125 66.40625  Q 24.171875 66.40625 20.328125 58.90625  Q 16.5 51.421875 16.5 36.375  Q 16.5 21.390625 20.328125 13.890625  Q 24.171875 6.390625 31.78125 6.390625  Q 39.453125 6.390625 43.28125 13.890625  Q 47.125 21.390625 47.125 36.375  Q 47.125 51.421875 43.28125 58.90625  Q 39.453125 66.40625 31.78125 66.40625  z M 31.78125 74.21875  Q 44.046875 74.21875 50.515625 64.515625  Q 56.984375 54.828125 56.984375 36.375  Q 56.984375 17.96875 50.515625 8.265625  Q 44.046875 -1.421875 31.78125 -1.421875  Q 19.53125 -1.421875 13.0625 8.265625  Q 6.59375 17.96875 6.59375 36.375  Q 6.59375 54.828125 13.0625 64.515625  Q 19.53125 74.21875 31.78125 74.21875  z " />
    <path
       id="DejaVuSans-78-9"
       d="M 9.8125 72.90625  L 23.09375 72.90625  L 55.421875 11.921875  L 55.421875 72.90625  L 64.984375 72.90625  L 64.984375 0  L 51.703125 0  L 19.390625 60.984375  L 19.390625 0  L 9.8125 0  z " />
    <path
       id="DejaVuSans-117-1"
       d="M 8.5 21.578125  L 8.5 54.6875  L 17.484375 54.6875  L 17.484375 21.921875  Q 17.484375 14.15625 20.5 10.265625  Q 23.53125 6.390625 29.59375 6.390625  Q 36.859375 6.390625 41.078125 11.03125  Q 45.3125 15.671875 45.3125 23.6875  L 45.3125 54.6875  L 54.296875 54.6875  L 54.296875 0  L 45.3125 0  L 45.3125 8.40625  Q 42.046875 3.421875 37.71875 1  Q 33.40625 -1.421875 27.6875 -1.421875  Q 18.265625 -1.421875 13.375 4.4375  Q 8.5 10.296875 8.5 21.578125  z M 31.109375 56  z " />
    <path
       id="DejaVuSans-109-2"
       d="M 52 44.1875  Q 55.375 50.25 60.0625 53.125  Q 64.75 56 71.09375 56  Q 79.640625 56 84.28125 50.015625  Q 88.921875 44.046875 88.921875 33.015625  L 88.921875 0  L 79.890625 0  L 79.890625 32.71875  Q 79.890625 40.578125 77.09375 44.375  Q 74.3125 48.1875 68.609375 48.1875  Q 61.625 48.1875 57.5625 43.546875  Q 53.515625 38.921875 53.515625 30.90625  L 53.515625 0  L 44.484375 0  L 44.484375 32.71875  Q 44.484375 40.625 41.703125 44.40625  Q 38.921875 48.1875 33.109375 48.1875  Q 26.21875 48.1875 22.15625 43.53125  Q 18.109375 38.875 18.109375 30.90625  L 18.109375 0  L 9.078125 0  L 9.078125 54.6875  L 18.109375 54.6875  L 18.109375 46.1875  Q 21.1875 51.21875 25.484375 53.609375  Q 29.78125 56 35.6875 56  Q 41.65625 56 45.828125 52.96875  Q 50 49.953125 52 44.1875  z " />
    <path
       id="DejaVuSans-98-7"
       d="M 48.6875 27.296875  Q 48.6875 37.203125 44.609375 42.84375  Q 40.53125 48.484375 33.40625 48.484375  Q 26.265625 48.484375 22.1875 42.84375  Q 18.109375 37.203125 18.109375 27.296875  Q 18.109375 17.390625 22.1875 11.75  Q 26.265625 6.109375 33.40625 6.109375  Q 40.53125 6.109375 44.609375 11.75  Q 48.6875 17.390625 48.6875 27.296875  z M 18.109375 46.390625  Q 20.953125 51.265625 25.265625 53.625  Q 29.59375 56 35.59375 56  Q 45.5625 56 51.78125 48.09375  Q 58.015625 40.1875 58.015625 27.296875  Q 58.015625 14.40625 51.78125 6.484375  Q 45.5625 -1.421875 35.59375 -1.421875  Q 29.59375 -1.421875 25.265625 0.953125  Q 20.953125 3.328125 18.109375 8.203125  L 18.109375 0  L 9.078125 0  L 9.078125 75.984375  L 18.109375 75.984375  z " />
    <path
       id="DejaVuSans-101-0"
       d="M 56.203125 29.59375  L 56.203125 25.203125  L 14.890625 25.203125  Q 15.484375 15.921875 20.484375 11.0625  Q 25.484375 6.203125 34.421875 6.203125  Q 39.59375 6.203125 44.453125 7.46875  Q 49.3125 8.734375 54.109375 11.28125  L 54.109375 2.78125  Q 49.265625 0.734375 44.1875 -0.34375  Q 39.109375 -1.421875 33.890625 -1.421875  Q 20.796875 -1.421875 13.15625 6.1875  Q 5.515625 13.8125 5.515625 26.8125  Q 5.515625 40.234375 12.765625 48.109375  Q 20.015625 56 32.328125 56  Q 43.359375 56 49.78125 48.890625  Q 56.203125 41.796875 56.203125 29.59375  z M 47.21875 32.234375  Q 47.125 39.59375 43.09375 43.984375  Q 39.0625 48.390625 32.421875 48.390625  Q 24.90625 48.390625 20.390625 44.140625  Q 15.875 39.890625 15.1875 32.171875  z " />
    <path
       id="DejaVuSans-114-9"
       d="M 41.109375 46.296875  Q 39.59375 47.171875 37.8125 47.578125  Q 36.03125 48 33.890625 48  Q 26.265625 48 22.1875 43.046875  Q 18.109375 38.09375 18.109375 28.8125  L 18.109375 0  L 9.078125 0  L 9.078125 54.6875  L 18.109375 54.6875  L 18.109375 46.1875  Q 20.953125 51.171875 25.484375 53.578125  Q 30.03125 56 36.53125 56  Q 37.453125 56 38.578125 55.875  Q 39.703125 55.765625 41.0625 55.515625  z " />
    <path
       id="DejaVuSans-32-3" />
    <path
       id="DejaVuSans-111-6"
       d="M 30.609375 48.390625  Q 23.390625 48.390625 19.1875 42.75  Q 14.984375 37.109375 14.984375 27.296875  Q 14.984375 17.484375 19.15625 11.84375  Q 23.34375 6.203125 30.609375 6.203125  Q 37.796875 6.203125 41.984375 11.859375  Q 46.1875 17.53125 46.1875 27.296875  Q 46.1875 37.015625 41.984375 42.703125  Q 37.796875 48.390625 30.609375 48.390625  z M 30.609375 56  Q 42.328125 56 49.015625 48.375  Q 55.71875 40.765625 55.71875 27.296875  Q 55.71875 13.875 49.015625 6.21875  Q 42.328125 -1.421875 30.609375 -1.421875  Q 18.84375 -1.421875 12.171875 6.21875  Q 5.515625 13.875 5.515625 27.296875  Q 5.515625 40.765625 12.171875 48.375  Q 18.84375 56 30.609375 56  z " />
    <path
       id="DejaVuSans-102-0"
       d="M 37.109375 75.984375  L 37.109375 68.5  L 28.515625 68.5  Q 23.6875 68.5 21.796875 66.546875  Q 19.921875 64.59375 19.921875 59.515625  L 19.921875 54.6875  L 34.71875 54.6875  L 34.71875 47.703125  L 19.921875 47.703125  L 19.921875 0  L 10.890625 0  L 10.890625 47.703125  L 2.296875 47.703125  L 2.296875 54.6875  L 10.890625 54.6875  L 10.890625 58.5  Q 10.890625 67.625 15.140625 71.796875  Q 19.390625 75.984375 28.609375 75.984375  z " />
    <path
       id="DejaVuSans-80-6"
       d="M 19.671875 64.796875  L 19.671875 37.40625  L 32.078125 37.40625  Q 38.96875 37.40625 42.71875 40.96875  Q 46.484375 44.53125 46.484375 51.125  Q 46.484375 57.671875 42.71875 61.234375  Q 38.96875 64.796875 32.078125 64.796875  z M 9.8125 72.90625  L 32.078125 72.90625  Q 44.34375 72.90625 50.609375 67.359375  Q 56.890625 61.8125 56.890625 51.125  Q 56.890625 40.328125 50.609375 34.8125  Q 44.34375 29.296875 32.078125 29.296875  L 19.671875 29.296875  L 19.671875 0  L 9.8125 0  z " />
    <path
       id="DejaVuSans-67-2"
       d="M 64.40625 67.28125  L 64.40625 56.890625  Q 59.421875 61.53125 53.78125 63.8125  Q 48.140625 66.109375 41.796875 66.109375  Q 29.296875 66.109375 22.65625 58.46875  Q 16.015625 50.828125 16.015625 36.375  Q 16.015625 21.96875 22.65625 14.328125  Q 29.296875 6.6875 41.796875 6.6875  Q 48.140625 6.6875 53.78125 8.984375  Q 59.421875 11.28125 64.40625 15.921875  L 64.40625 5.609375  Q 59.234375 2.09375 53.4375 0.328125  Q 47.65625 -1.421875 41.21875 -1.421875  Q 24.65625 -1.421875 15.125 8.703125  Q 5.609375 18.84375 5.609375 36.375  Q 5.609375 53.953125 15.125 64.078125  Q 24.65625 74.21875 41.21875 74.21875  Q 47.75 74.21875 53.53125 72.484375  Q 59.328125 70.75 64.40625 67.28125  z " />
    <path
       id="DejaVuSans-65-6"
       d="M 34.1875 63.1875  L 20.796875 26.90625  L 47.609375 26.90625  z M 28.609375 72.90625  L 39.796875 72.90625  L 67.578125 0  L 57.328125 0  L 50.6875 18.703125  L 17.828125 18.703125  L 11.1875 0  L 0.78125 0  z " />
    <path
       id="DejaVuSans-112-1"
       d="M 18.109375 8.203125  L 18.109375 -20.796875  L 9.078125 -20.796875  L 9.078125 54.6875  L 18.109375 54.6875  L 18.109375 46.390625  Q 20.953125 51.265625 25.265625 53.625  Q 29.59375 56 35.59375 56  Q 45.5625 56 51.78125 48.09375  Q 58.015625 40.1875 58.015625 27.296875  Q 58.015625 14.40625 51.78125 6.484375  Q 45.5625 -1.421875 35.59375 -1.421875  Q 29.59375 -1.421875 25.265625 0.953125  Q 20.953125 3.328125 18.109375 8.203125  z M 48.6875 27.296875  Q 48.6875 37.203125 44.609375 42.84375  Q 40.53125 48.484375 33.40625 48.484375  Q 26.265625 48.484375 22.1875 42.84375  Q 18.109375 37.203125 18.109375 27.296875  Q 18.109375 17.390625 22.1875 11.75  Q 26.265625 6.109375 33.40625 6.109375  Q 40.53125 6.109375 44.609375 11.75  Q 48.6875 17.390625 48.6875 27.296875  z " />
    <path
       id="DejaVuSans-110-8"
       d="M 54.890625 33.015625  L 54.890625 0  L 45.90625 0  L 45.90625 32.71875  Q 45.90625 40.484375 42.875 44.328125  Q 39.84375 48.1875 33.796875 48.1875  Q 26.515625 48.1875 22.3125 43.546875  Q 18.109375 38.921875 18.109375 30.90625  L 18.109375 0  L 9.078125 0  L 9.078125 54.6875  L 18.109375 54.6875  L 18.109375 46.1875  Q 21.34375 51.125 25.703125 53.5625  Q 30.078125 56 35.796875 56  Q 45.21875 56 50.046875 50.171875  Q 54.890625 44.34375 54.890625 33.015625  z " />
    <path
       id="DejaVuSans-116-7"
       d="M 18.3125 70.21875  L 18.3125 54.6875  L 36.8125 54.6875  L 36.8125 47.703125  L 18.3125 47.703125  L 18.3125 18.015625  Q 18.3125 11.328125 20.140625 9.421875  Q 21.96875 7.515625 27.59375 7.515625  L 36.8125 7.515625  L 36.8125 0  L 27.59375 0  Q 17.1875 0 13.234375 3.875  Q 9.28125 7.765625 9.28125 18.015625  L 9.28125 47.703125  L 2.6875 47.703125  L 2.6875 54.6875  L 9.28125 54.6875  L 9.28125 70.21875  z " />
    <path
       id="DejaVuSans-115-9"
       d="M 44.28125 53.078125  L 44.28125 44.578125  Q 40.484375 46.53125 36.375 47.5  Q 32.28125 48.484375 27.875 48.484375  Q 21.1875 48.484375 17.84375 46.4375  Q 14.5 44.390625 14.5 40.28125  Q 14.5 37.15625 16.890625 35.375  Q 19.28125 33.59375 26.515625 31.984375  L 29.59375 31.296875  Q 39.15625 29.25 43.1875 25.515625  Q 47.21875 21.78125 47.21875 15.09375  Q 47.21875 7.46875 41.1875 3.015625  Q 35.15625 -1.421875 24.609375 -1.421875  Q 20.21875 -1.421875 15.453125 -0.5625  Q 10.6875 0.296875 5.421875 2  L 5.421875 11.28125  Q 10.40625 8.6875 15.234375 7.390625  Q 20.0625 6.109375 24.8125 6.109375  Q 31.15625 6.109375 34.5625 8.28125  Q 37.984375 10.453125 37.984375 14.40625  Q 37.984375 18.0625 35.515625 20.015625  Q 33.0625 21.96875 24.703125 23.78125  L 21.578125 24.515625  Q 13.234375 26.265625 9.515625 29.90625  Q 5.8125 33.546875 5.8125 39.890625  Q 5.8125 47.609375 11.28125 51.796875  Q 16.75 56 26.8125 56  Q 31.78125 56 36.171875 55.265625  Q 40.578125 54.546875 44.28125 53.078125  z " />
    <path
       style="stroke:#000000;stroke-width:0.8;"
       id="m161e6782d8"
       d="M 0 0  L -3.5 0  " />
    <path
       id="DejaVuSans-46-2"
       d="M 10.6875 12.40625  L 21 12.40625  L 21 0  L 10.6875 0  z " />
    <path
       id="DejaVuSans-55-0"
       d="M 8.203125 72.90625  L 55.078125 72.90625  L 55.078125 68.703125  L 28.609375 0  L 18.3125 0  L 43.21875 64.59375  L 8.203125 64.59375  z " />
    <path
       id="DejaVuSans-57-2"
       d="M 10.984375 1.515625  L 10.984375 10.5  Q 14.703125 8.734375 18.5 7.8125  Q 22.3125 6.890625 25.984375 6.890625  Q 35.75 6.890625 40.890625 13.453125  Q 46.046875 20.015625 46.78125 33.40625  Q 43.953125 29.203125 39.59375 26.953125  Q 35.25 24.703125 29.984375 24.703125  Q 19.046875 24.703125 12.671875 31.3125  Q 6.296875 37.9375 6.296875 49.421875  Q 6.296875 60.640625 12.9375 67.421875  Q 19.578125 74.21875 30.609375 74.21875  Q 43.265625 74.21875 49.921875 64.515625  Q 56.59375 54.828125 56.59375 36.375  Q 56.59375 19.140625 48.40625 8.859375  Q 40.234375 -1.421875 26.421875 -1.421875  Q 22.703125 -1.421875 18.890625 -0.6875  Q 15.09375 0.046875 10.984375 1.515625  z M 30.609375 32.421875  Q 37.25 32.421875 41.125 36.953125  Q 45.015625 41.5 45.015625 49.421875  Q 45.015625 57.28125 41.125 61.84375  Q 37.25 66.40625 30.609375 66.40625  Q 23.96875 66.40625 20.09375 61.84375  Q 16.21875 57.28125 16.21875 49.421875  Q 16.21875 41.5 20.09375 36.953125  Q 23.96875 32.421875 30.609375 32.421875  z " />
    <path
       id="DejaVuSans-86-3"
       d="M 28.609375 0  L 0.78125 72.90625  L 11.078125 72.90625  L 34.1875 11.53125  L 57.328125 72.90625  L 67.578125 72.90625  L 39.796875 0  z " />
    <path
       id="DejaVuSans-97-7"
       d="M 34.28125 27.484375  Q 23.390625 27.484375 19.1875 25  Q 14.984375 22.515625 14.984375 16.5  Q 14.984375 11.71875 18.140625 8.90625  Q 21.296875 6.109375 26.703125 6.109375  Q 34.1875 6.109375 38.703125 11.40625  Q 43.21875 16.703125 43.21875 25.484375  L 43.21875 27.484375  z M 52.203125 31.203125  L 52.203125 0  L 43.21875 0  L 43.21875 8.296875  Q 40.140625 3.328125 35.546875 0.953125  Q 30.953125 -1.421875 24.3125 -1.421875  Q 15.921875 -1.421875 10.953125 3.296875  Q 6 8.015625 6 15.921875  Q 6 25.140625 12.171875 29.828125  Q 18.359375 34.515625 30.609375 34.515625  L 43.21875 34.515625  L 43.21875 35.40625  Q 43.21875 41.609375 39.140625 45  Q 35.0625 48.390625 27.6875 48.390625  Q 23 48.390625 18.546875 47.265625  Q 14.109375 46.140625 10.015625 43.890625  L 10.015625 52.203125  Q 14.9375 54.109375 19.578125 55.046875  Q 24.21875 56 28.609375 56  Q 40.484375 56 46.34375 49.84375  Q 52.203125 43.703125 52.203125 31.203125  z " />
    <path
       id="DejaVuSans-105-5"
       d="M 9.421875 54.6875  L 18.40625 54.6875  L 18.40625 0  L 9.421875 0  z M 9.421875 75.984375  L 18.40625 75.984375  L 18.40625 64.59375  L 9.421875 64.59375  z " />
    <path
       id="DejaVuSans-99-9"
       d="M 48.78125 52.59375  L 48.78125 44.1875  Q 44.96875 46.296875 41.140625 47.34375  Q 37.3125 48.390625 33.40625 48.390625  Q 24.65625 48.390625 19.8125 42.84375  Q 14.984375 37.3125 14.984375 27.296875  Q 14.984375 17.28125 19.8125 11.734375  Q 24.65625 6.203125 33.40625 6.203125  Q 37.3125 6.203125 41.140625 7.25  Q 44.96875 8.296875 48.78125 10.40625  L 48.78125 2.09375  Q 45.015625 0.34375 40.984375 -0.53125  Q 36.96875 -1.421875 32.421875 -1.421875  Q 20.0625 -1.421875 12.78125 6.34375  Q 5.515625 14.109375 5.515625 27.296875  Q 5.515625 40.671875 12.859375 48.328125  Q 20.21875 56 33.015625 56  Q 37.15625 56 41.109375 55.140625  Q 45.0625 54.296875 48.78125 52.59375  z " />
    <path
       id="DejaVuSans-69-2"
       d="M 9.8125 72.90625  L 55.90625 72.90625  L 55.90625 64.59375  L 19.671875 64.59375  L 19.671875 43.015625  L 54.390625 43.015625  L 54.390625 34.71875  L 19.671875 34.71875  L 19.671875 8.296875  L 56.78125 8.296875  L 56.78125 0  L 9.8125 0  z " />
    <path
       id="DejaVuSans-120-2"
       d="M 54.890625 54.6875  L 35.109375 28.078125  L 55.90625 0  L 45.3125 0  L 29.390625 21.484375  L 13.484375 0  L 2.875 0  L 24.125 28.609375  L 4.6875 54.6875  L 15.28125 54.6875  L 29.78125 35.203125  L 44.28125 54.6875  z " />
    <path
       id="DejaVuSans-108-8"
       d="M 9.421875 75.984375  L 18.40625 75.984375  L 18.40625 0  L 9.421875 0  z " />
    <path
       id="DejaVuSans-100-9"
       d="M 45.40625 46.390625  L 45.40625 75.984375  L 54.390625 75.984375  L 54.390625 0  L 45.40625 0  L 45.40625 8.203125  Q 42.578125 3.328125 38.25 0.953125  Q 33.9375 -1.421875 27.875 -1.421875  Q 17.96875 -1.421875 11.734375 6.484375  Q 5.515625 14.40625 5.515625 27.296875  Q 5.515625 40.1875 11.734375 48.09375  Q 17.96875 56 27.875 56  Q 33.9375 56 38.25 53.625  Q 42.578125 51.265625 45.40625 46.390625  z M 14.796875 27.296875  Q 14.796875 17.390625 18.875 11.75  Q 22.953125 6.109375 30.078125 6.109375  Q 37.203125 6.109375 41.296875 11.75  Q 45.40625 17.390625 45.40625 27.296875  Q 45.40625 37.203125 41.296875 42.84375  Q 37.203125 48.484375 30.078125 48.484375  Q 22.953125 48.484375 18.875 42.84375  Q 14.796875 37.203125 14.796875 27.296875  z " />
    <path
       style="stroke:#ff0000;"
       id="me7a54511e6"
       d="M 0 3  C 0.795609 3 1.55874 2.683901 2.12132 2.12132  C 2.683901 1.55874 3 0.795609 3 0  C 3 -0.795609 2.683901 -1.55874 2.12132 -2.12132  C 1.55874 -2.683901 0.795609 -3 0 -3  C -0.795609 -3 -1.55874 -2.683901 -2.12132 -2.12132  C -2.683901 -1.55874 -3 -0.795609 -3 0  C -3 0.795609 -2.683901 1.55874 -2.12132 2.12132  C -1.55874 2.683901 -0.795609 3 0 3  z " />
    <clipPath
       id="p4e6eb9d535">
      <rect
         id="rect6105"
         y="34.56"
         x="54"
         width="334.8"
         height="217.44" />
    </clipPath>
  </defs>
  <g
     id="figure_1"
     style="stroke-linecap:butt;stroke-linejoin:round"
     transform="matrix(0.62962963,0,0,0.64102564,45.53846,37.538462)">
    <g
       id="patch_1"
       style="stroke-linecap:butt;stroke-linejoin:round"
       transform="translate(-37.31988,19.00703)">
      <path
         id="path5205"
         style="fill:#ffffff;stroke-linecap:butt;stroke-linejoin:round"
         d="M 0,288 H 432 V 0 H 0 Z"
         inkscape:connector-curvature="0" />
    </g>
    <g
       id="figure_1-3"
       transform="matrix(1.5882353,0,0,1.56,-70.371039,-58.56)"
       style="stroke-linecap:butt;stroke-linejoin:round">
      <g
         id="patch_1-6"
         style="stroke-linecap:butt;stroke-linejoin:round"
         transform="translate(5.5384615,-33.538462)" />
      <g
         id="axes_1"
         style="stroke-linecap:butt;stroke-linejoin:round"
         transform="matrix(0.85249185,0,0,0.91765213,49.127008,1.7286674)">
        <g
           id="patch_2"
           style="stroke-linecap:butt;stroke-linejoin:round"
           transform="translate(-27.563551,13.277356)">
          <path
             id="path5794"
             style="fill:#ffffff;stroke-linecap:butt;stroke-linejoin:round"
             d="M 54,252 H 388.8 V 34.56 H 54 Z"
             inkscape:connector-curvature="0" />
        </g>
        <g
           id="matplotlib.axis_1"
           style="stroke-linecap:butt;stroke-linejoin:round"
           transform="translate(-27.563551,13.277356)">
          <g
             id="xtick_1"
             style="stroke-linecap:butt;stroke-linejoin:round">
            <g
               id="line2d_1"
               style="stroke-linecap:butt;stroke-linejoin:round">
              <defs
                 id="defs5798">
                <path
                   style="stroke:#000000;stroke-width:0.80000001;stroke-linecap:butt;stroke-linejoin:round"
                   id="path6157"
                   d="M 0,0 V 3.5"
                   inkscape:connector-curvature="0" />
              </defs>
              <g
                 id="g5802"
                 style="stroke-linecap:butt;stroke-linejoin:round">
                <use
                   id="use5800"
                   y="252"
                   xlink:href="#mb03f2c7537"
                   x="103.03636"
                   style="stroke:#000000;stroke-width:0.80000001;stroke-linecap:butt;stroke-linejoin:round"
                   width="100%"
                   height="100%" />
              </g>
            </g>
            <g
               id="text_1"
               style="stroke-linecap:butt;stroke-linejoin:round">
              <!-- 2 -->
              <g
                 id="g5810"
                 transform="matrix(0.1,0,0,-0.1,99.855114,266.59844)"
                 style="stroke-linecap:butt;stroke-linejoin:round">
                <defs
                   id="defs5806">
                  <path
                     id="path6163"
                     d="M 19.1875,8.296875 H 53.609375 V 0 H 7.328125 v 8.296875 q 5.609375,5.8125 15.296875,15.59375 9.703125,9.796875 12.1875,12.640625 4.734375,5.3125 6.609375,9 1.890625,3.6875 1.890625,7.25 0,5.8125 -4.078125,9.46875 -4.078125,3.671875 -10.625,3.671875 -4.640625,0 -9.796875,-1.609375 -5.140625,-1.609375 -11,-4.890625 v 9.96875 Q 13.765625,71.78125 18.9375,73 q 5.1875,1.21875 9.484375,1.21875 11.328125,0 18.0625,-5.671875 6.734375,-5.65625 6.734375,-15.125 0,-4.5 -1.6875,-8.53125 Q 49.859375,40.875 45.40625,35.40625 44.1875,33.984375 37.640625,27.21875 31.109375,20.453125 19.1875,8.296875 Z"
                     inkscape:connector-curvature="0"
                     style="stroke-linecap:butt;stroke-linejoin:round" />
                </defs>
                <use
                   id="use5808"
                   xlink:href="#DejaVuSans-50-7"
                   style="stroke-linecap:butt;stroke-linejoin:round"
                   x="0"
                   y="0"
                   width="100%"
                   height="100%" />
              </g>
            </g>
          </g>
          <g
             id="xtick_2"
             style="stroke-linecap:butt;stroke-linejoin:round">
            <g
               id="line2d_2"
               style="stroke-linecap:butt;stroke-linejoin:round">
              <g
                 id="g5816"
                 style="stroke-linecap:butt;stroke-linejoin:round">
                <use
                   id="use5814"
                   y="252"
                   xlink:href="#mb03f2c7537"
                   x="170.67273"
                   style="stroke:#000000;stroke-width:0.80000001;stroke-linecap:butt;stroke-linejoin:round"
                   width="100%"
                   height="100%" />
              </g>
            </g>
            <g
               id="text_2"
               style="stroke-linecap:butt;stroke-linejoin:round">
              <!-- 4 -->
              <g
                 id="g5824"
                 transform="matrix(0.1,0,0,-0.1,167.49148,266.59844)"
                 style="stroke-linecap:butt;stroke-linejoin:round">
                <defs
                   id="defs5820">
                  <path
                     id="path6173"
                     d="M 37.796875,64.3125 12.890625,25.390625 h 24.90625 z m -2.59375,8.59375 h 12.40625 V 25.390625 h 10.40625 V 17.1875 H 47.609375 V 0 h -9.8125 V 17.1875 H 4.890625 v 9.515625 z"
                     inkscape:connector-curvature="0"
                     style="stroke-linecap:butt;stroke-linejoin:round" />
                </defs>
                <use
                   id="use5822"
                   xlink:href="#DejaVuSans-52-5"
                   style="stroke-linecap:butt;stroke-linejoin:round"
                   x="0"
                   y="0"
                   width="100%"
                   height="100%" />
              </g>
            </g>
          </g>
          <g
             id="xtick_3"
             style="stroke-linecap:butt;stroke-linejoin:round">
            <g
               id="line2d_3"
               style="stroke-linecap:butt;stroke-linejoin:round">
              <g
                 id="g5830"
                 style="stroke-linecap:butt;stroke-linejoin:round">
                <use
                   id="use5828"
                   y="252"
                   xlink:href="#mb03f2c7537"
                   x="238.3091"
                   style="stroke:#000000;stroke-width:0.80000001;stroke-linecap:butt;stroke-linejoin:round"
                   width="100%"
                   height="100%" />
              </g>
            </g>
            <g
               id="text_3"
               style="stroke-linecap:butt;stroke-linejoin:round">
              <!-- 6 -->
              <g
                 id="g5838"
                 transform="matrix(0.1,0,0,-0.1,235.12784,266.59844)"
                 style="stroke-linecap:butt;stroke-linejoin:round">
                <defs
                   id="defs5834">
                  <path
                     id="path6183"
                     d="m 33.015625,40.375 q -6.640625,0 -10.53125,-4.546875 -3.875,-4.53125 -3.875,-12.4375 0,-7.859375 3.875,-12.4375 3.890625,-4.5625 10.53125,-4.5625 6.640625,0 10.515625,4.5625 3.875,4.578125 3.875,12.4375 0,7.90625 -3.875,12.4375 Q 39.65625,40.375 33.015625,40.375 Z M 52.59375,71.296875 V 62.3125 q -3.71875,1.75 -7.5,2.671875 -3.78125,0.9375 -7.5,0.9375 -9.765625,0 -14.921875,-6.59375 -5.140625,-6.59375 -5.875,-19.921875 2.875,4.25 7.21875,6.515625 4.359375,2.265625 9.578125,2.265625 10.984375,0 17.359375,-6.671875 6.375,-6.65625 6.375,-18.125 0,-11.234375 -6.640625,-18.03125 -6.640625,-6.78125 -17.671875,-6.78125 -12.65625,0 -19.34375,9.6875 -6.6875,9.703125 -6.6875,28.109375 0,17.28125 8.203125,27.5625 8.203125,10.28125 22.015625,10.28125 3.71875,0 7.5,-0.734375 3.78125,-0.734375 7.890625,-2.1875 z"
                     inkscape:connector-curvature="0"
                     style="stroke-linecap:butt;stroke-linejoin:round" />
                </defs>
                <use
                   id="use5836"
                   xlink:href="#DejaVuSans-54-3"
                   style="stroke-linecap:butt;stroke-linejoin:round"
                   x="0"
                   y="0"
                   width="100%"
                   height="100%" />
              </g>
            </g>
          </g>
          <g
             id="xtick_4"
             style="stroke-linecap:butt;stroke-linejoin:round">
            <g
               id="line2d_4"
               style="stroke-linecap:butt;stroke-linejoin:round">
              <g
                 id="g5844"
                 style="stroke-linecap:butt;stroke-linejoin:round">
                <use
                   id="use5842"
                   y="252"
                   xlink:href="#mb03f2c7537"
                   x="305.94547"
                   style="stroke:#000000;stroke-width:0.80000001;stroke-linecap:butt;stroke-linejoin:round"
                   width="100%"
                   height="100%" />
              </g>
            </g>
            <g
               id="text_4"
               style="stroke-linecap:butt;stroke-linejoin:round">
              <!-- 8 -->
              <g
                 id="g5852"
                 transform="matrix(0.1,0,0,-0.1,302.7642,266.59844)"
                 style="stroke-linecap:butt;stroke-linejoin:round">
                <defs
                   id="defs5848">
                  <path
                     id="path6193"
                     d="m 31.78125,34.625 q -7.03125,0 -11.0625,-3.765625 -4.015625,-3.765625 -4.015625,-10.34375 0,-6.59375 4.015625,-10.359375 4.03125,-3.765625 11.0625,-3.765625 7.03125,0 11.078125,3.78125 4.0625,3.796875 4.0625,10.34375 0,6.578125 -4.03125,10.34375 Q 38.875,34.625 31.78125,34.625 Z m -9.859375,4.1875 Q 15.578125,40.375 12.03125,44.71875 8.5,49.078125 8.5,55.328125 q 0,8.734375 6.21875,13.8125 6.234375,5.078125 17.0625,5.078125 10.890625,0 17.09375,-5.078125 6.203125,-5.078125 6.203125,-13.8125 0,-6.25 -3.546875,-10.609375 Q 48,40.375 41.703125,38.8125 q 7.125,-1.65625 11.09375,-6.5 3.984375,-4.828125 3.984375,-11.796875 0,-10.609375 -6.46875,-16.28125 -6.46875,-5.65625 -18.53125,-5.65625 -12.046875,0 -18.53125,5.65625 -6.46875,5.671875 -6.46875,16.28125 0,6.96875 4,11.796875 4.015625,4.84375 11.140625,6.5 z M 18.3125,54.390625 q 0,-5.65625 3.53125,-8.828125 3.546875,-3.171875 9.9375,-3.171875 6.359375,0 9.9375,3.171875 3.59375,3.171875 3.59375,8.828125 0,5.671875 -3.59375,8.84375 -3.578125,3.171875 -9.9375,3.171875 -6.390625,0 -9.9375,-3.171875 Q 18.3125,60.0625 18.3125,54.390625 Z"
                     inkscape:connector-curvature="0"
                     style="stroke-linecap:butt;stroke-linejoin:round" />
                </defs>
                <use
                   id="use5850"
                   xlink:href="#DejaVuSans-56-5"
                   style="stroke-linecap:butt;stroke-linejoin:round"
                   x="0"
                   y="0"
                   width="100%"
                   height="100%" />
              </g>
            </g>
          </g>
          <g
             id="xtick_5"
             style="stroke-linecap:butt;stroke-linejoin:round">
            <g
               id="line2d_5"
               style="stroke-linecap:butt;stroke-linejoin:round">
              <g
                 id="g5858"
                 style="stroke-linecap:butt;stroke-linejoin:round">
                <use
                   id="use5856"
                   y="252"
                   xlink:href="#mb03f2c7537"
                   x="373.58182"
                   style="stroke:#000000;stroke-width:0.80000001;stroke-linecap:butt;stroke-linejoin:round"
                   width="100%"
                   height="100%" />
              </g>
            </g>
            <g
               id="text_5"
               style="stroke-linecap:butt;stroke-linejoin:round">
              <!-- 10 -->
              <g
                 id="g5869"
                 transform="matrix(0.1,0,0,-0.1,367.21932,266.59844)"
                 style="stroke-linecap:butt;stroke-linejoin:round">
                <defs
                   id="defs5863">
                  <path
                     id="path6203"
                     d="m 12.40625,8.296875 h 16.109375 v 55.625 L 10.984375,60.40625 v 8.984375 l 17.4375,3.515625 H 38.28125 V 8.296875 H 54.390625 V 0 H 12.40625 Z"
                     inkscape:connector-curvature="0"
                     style="stroke-linecap:butt;stroke-linejoin:round" />
                  <path
                     id="path6205"
                     d="m 31.78125,66.40625 q -7.609375,0 -11.453125,-7.5 Q 16.5,51.421875 16.5,36.375 q 0,-14.984375 3.828125,-22.484375 3.84375,-7.5 11.453125,-7.5 7.671875,0 11.5,7.5 3.84375,7.5 3.84375,22.484375 0,15.046875 -3.84375,22.53125 -3.828125,7.5 -11.5,7.5 z m 0,7.8125 q 12.265625,0 18.734375,-9.703125 6.46875,-9.6875 6.46875,-28.140625 0,-18.40625 -6.46875,-28.109375 -6.46875,-9.6875 -18.734375,-9.6875 -12.25,0 -18.71875,9.6875 Q 6.59375,17.96875 6.59375,36.375 q 0,18.453125 6.46875,28.140625 6.46875,9.703125 18.71875,9.703125 z"
                     inkscape:connector-curvature="0"
                     style="stroke-linecap:butt;stroke-linejoin:round" />
                </defs>
                <use
                   id="use5865"
                   xlink:href="#DejaVuSans-49-6"
                   style="stroke-linecap:butt;stroke-linejoin:round"
                   x="0"
                   y="0"
                   width="100%"
                   height="100%" />
                <use
                   id="use5867"
                   xlink:href="#DejaVuSans-48-2"
                   x="63.623047"
                   style="stroke-linecap:butt;stroke-linejoin:round"
                   y="0"
                   width="100%"
                   height="100%" />
              </g>
            </g>
          </g>
        </g>
        <g
           id="matplotlib.axis_2"
           style="stroke-linecap:butt;stroke-linejoin:round"
           transform="translate(-27.563551,13.277356)">
          <g
             id="ytick_1"
             style="stroke-linecap:butt;stroke-linejoin:round">
            <g
               id="line2d_6"
               style="stroke-linecap:butt;stroke-linejoin:round">
              <defs
                 id="defs5944">
                <path
                   style="stroke:#000000;stroke-width:0.80000001;stroke-linecap:butt;stroke-linejoin:round"
                   id="path6273"
                   d="M 0,0 H -3.5"
                   inkscape:connector-curvature="0" />
              </defs>
              <g
                 id="g5948"
                 style="stroke-linecap:butt;stroke-linejoin:round">
                <use
                   id="use5946"
                   y="224.26694"
                   xlink:href="#m161e6782d8"
                   x="54"
                   style="stroke:#000000;stroke-width:0.80000001;stroke-linecap:butt;stroke-linejoin:round"
                   width="100%"
                   height="100%" />
              </g>
            </g>
            <g
               id="text_7"
               style="stroke-linecap:butt;stroke-linejoin:round">
              <!-- 0.6 -->
              <g
                 id="g5960"
                 transform="matrix(0.1,0,0,-0.1,31.096875,228.06615)"
                 style="stroke-linecap:butt;stroke-linejoin:round">
                <defs
                   id="defs5952">
                  <path
                     id="path6279"
                     d="M 10.6875,12.40625 H 21 V 0 H 10.6875 Z"
                     inkscape:connector-curvature="0"
                     style="stroke-linecap:butt;stroke-linejoin:round" />
                </defs>
                <use
                   id="use5954"
                   xlink:href="#DejaVuSans-48-2"
                   style="stroke-linecap:butt;stroke-linejoin:round"
                   x="0"
                   y="0"
                   width="100%"
                   height="100%" />
                <use
                   id="use5956"
                   xlink:href="#DejaVuSans-46-2"
                   x="63.623047"
                   style="stroke-linecap:butt;stroke-linejoin:round"
                   y="0"
                   width="100%"
                   height="100%" />
                <use
                   id="use5958"
                   xlink:href="#DejaVuSans-54-3"
                   x="95.410156"
                   style="stroke-linecap:butt;stroke-linejoin:round"
                   y="0"
                   width="100%"
                   height="100%" />
              </g>
            </g>
          </g>
          <g
             id="ytick_2"
             style="stroke-linecap:butt;stroke-linejoin:round">
            <g
               id="line2d_7"
               style="stroke-linecap:butt;stroke-linejoin:round">
              <g
                 id="g5966"
                 style="stroke-linecap:butt;stroke-linejoin:round">
                <use
                   id="use5964"
                   y="179.31111"
                   xlink:href="#m161e6782d8"
                   x="54"
                   style="stroke:#000000;stroke-width:0.80000001;stroke-linecap:butt;stroke-linejoin:round"
                   width="100%"
                   height="100%" />
              </g>
            </g>
            <g
               id="text_8"
               style="stroke-linecap:butt;stroke-linejoin:round">
              <!-- 0.7 -->
              <g
                 id="g5978"
                 transform="matrix(0.1,0,0,-0.1,31.096875,183.11033)"
                 style="stroke-linecap:butt;stroke-linejoin:round">
                <defs
                   id="defs5970">
                  <path
                     id="path6291"
                     d="m 8.203125,72.90625 h 46.875 V 68.703125 L 28.609375,0 H 18.3125 L 43.21875,64.59375 H 8.203125 Z"
                     inkscape:connector-curvature="0"
                     style="stroke-linecap:butt;stroke-linejoin:round" />
                </defs>
                <use
                   id="use5972"
                   xlink:href="#DejaVuSans-48-2"
                   style="stroke-linecap:butt;stroke-linejoin:round"
                   x="0"
                   y="0"
                   width="100%"
                   height="100%" />
                <use
                   id="use5974"
                   xlink:href="#DejaVuSans-46-2"
                   x="63.623047"
                   style="stroke-linecap:butt;stroke-linejoin:round"
                   y="0"
                   width="100%"
                   height="100%" />
                <use
                   id="use5976"
                   xlink:href="#DejaVuSans-55-0"
                   x="95.410156"
                   style="stroke-linecap:butt;stroke-linejoin:round"
                   y="0"
                   width="100%"
                   height="100%" />
              </g>
            </g>
          </g>
          <g
             id="ytick_3"
             style="stroke-linecap:butt;stroke-linejoin:round">
            <g
               id="line2d_8"
               style="stroke-linecap:butt;stroke-linejoin:round">
              <g
                 id="g5984"
                 style="stroke-linecap:butt;stroke-linejoin:round">
                <use
                   id="use5982"
                   y="134.35529"
                   xlink:href="#m161e6782d8"
                   x="54"
                   style="stroke:#000000;stroke-width:0.80000001;stroke-linecap:butt;stroke-linejoin:round"
                   width="100%"
                   height="100%" />
              </g>
            </g>
            <g
               id="text_9"
               style="stroke-linecap:butt;stroke-linejoin:round">
              <!-- 0.8 -->
              <g
                 id="g5993"
                 transform="matrix(0.1,0,0,-0.1,31.096875,138.1545)"
                 style="stroke-linecap:butt;stroke-linejoin:round">
                <use
                   id="use5987"
                   xlink:href="#DejaVuSans-48-2"
                   style="stroke-linecap:butt;stroke-linejoin:round"
                   x="0"
                   y="0"
                   width="100%"
                   height="100%" />
                <use
                   id="use5989"
                   xlink:href="#DejaVuSans-46-2"
                   x="63.623047"
                   style="stroke-linecap:butt;stroke-linejoin:round"
                   y="0"
                   width="100%"
                   height="100%" />
                <use
                   id="use5991"
                   xlink:href="#DejaVuSans-56-5"
                   x="95.410156"
                   style="stroke-linecap:butt;stroke-linejoin:round"
                   y="0"
                   width="100%"
                   height="100%" />
              </g>
            </g>
          </g>
          <g
             id="ytick_4"
             style="stroke-linecap:butt;stroke-linejoin:round">
            <g
               id="line2d_9"
               style="stroke-linecap:butt;stroke-linejoin:round">
              <g
                 id="g5999"
                 style="stroke-linecap:butt;stroke-linejoin:round">
                <use
                   id="use5997"
                   y="89.39946"
                   xlink:href="#m161e6782d8"
                   x="54"
                   style="stroke:#000000;stroke-width:0.80000001;stroke-linecap:butt;stroke-linejoin:round"
                   width="100%"
                   height="100%" />
              </g>
            </g>
            <g
               id="text_10"
               style="stroke-linecap:butt;stroke-linejoin:round">
              <!-- 0.9 -->
              <g
                 id="g6011"
                 transform="matrix(0.1,0,0,-0.1,31.096875,93.198679)"
                 style="stroke-linecap:butt;stroke-linejoin:round">
                <defs
                   id="defs6003">
                  <path
                     id="path6312"
                     d="M 10.984375,1.515625 V 10.5 Q 14.703125,8.734375 18.5,7.8125 q 3.8125,-0.921875 7.484375,-0.921875 9.765625,0 14.90625,6.5625 5.15625,6.5625 5.890625,19.953125 -2.828125,-4.203125 -7.1875,-6.453125 -4.34375,-2.25 -9.609375,-2.25 -10.9375,0 -17.3125,6.609375 -6.375,6.625 -6.375,18.109375 0,11.21875 6.640625,18 6.640625,6.796875 17.671875,6.796875 12.65625,0 19.3125,-9.703125 6.671875,-9.6875 6.671875,-28.140625 0,-17.234375 -8.1875,-27.515625 -8.171875,-10.28125 -21.984375,-10.28125 -3.71875,0 -7.53125,0.734375 -3.796875,0.734375 -7.90625,2.203125 z m 19.625,30.90625 q 6.640625,0 10.515625,4.53125 3.890625,4.546875 3.890625,12.46875 0,7.859375 -3.890625,12.421875 -3.875,4.5625 -10.515625,4.5625 -6.640625,0 -10.515625,-4.5625 -3.875,-4.5625 -3.875,-12.421875 0,-7.921875 3.875,-12.46875 3.875,-4.53125 10.515625,-4.53125 z"
                     inkscape:connector-curvature="0"
                     style="stroke-linecap:butt;stroke-linejoin:round" />
                </defs>
                <use
                   id="use6005"
                   xlink:href="#DejaVuSans-48-2"
                   style="stroke-linecap:butt;stroke-linejoin:round"
                   x="0"
                   y="0"
                   width="100%"
                   height="100%" />
                <use
                   id="use6007"
                   xlink:href="#DejaVuSans-46-2"
                   x="63.623047"
                   style="stroke-linecap:butt;stroke-linejoin:round"
                   y="0"
                   width="100%"
                   height="100%" />
                <use
                   id="use6009"
                   xlink:href="#DejaVuSans-57-2"
                   x="95.410156"
                   style="stroke-linecap:butt;stroke-linejoin:round"
                   y="0"
                   width="100%"
                   height="100%" />
              </g>
            </g>
          </g>
          <g
             id="ytick_5"
             style="stroke-linecap:butt;stroke-linejoin:round">
            <g
               id="line2d_10"
               style="stroke-linecap:butt;stroke-linejoin:round">
              <g
                 id="g6017"
                 style="stroke-linecap:butt;stroke-linejoin:round">
                <use
                   id="use6015"
                   y="44.443638"
                   xlink:href="#m161e6782d8"
                   x="54"
                   style="stroke:#000000;stroke-width:0.80000001;stroke-linecap:butt;stroke-linejoin:round"
                   width="100%"
                   height="100%" />
              </g>
            </g>
            <g
               id="text_11"
               style="stroke-linecap:butt;stroke-linejoin:round">
              <!-- 1.0 -->
              <g
                 id="g6026"
                 transform="matrix(0.1,0,0,-0.1,31.096875,48.242855)"
                 style="stroke-linecap:butt;stroke-linejoin:round">
                <use
                   id="use6020"
                   xlink:href="#DejaVuSans-49-6"
                   style="stroke-linecap:butt;stroke-linejoin:round"
                   x="0"
                   y="0"
                   width="100%"
                   height="100%" />
                <use
                   id="use6022"
                   xlink:href="#DejaVuSans-46-2"
                   x="63.623047"
                   style="stroke-linecap:butt;stroke-linejoin:round"
                   y="0"
                   width="100%"
                   height="100%" />
                <use
                   id="use6024"
                   xlink:href="#DejaVuSans-48-2"
                   x="95.410156"
                   style="stroke-linecap:butt;stroke-linejoin:round"
                   y="0"
                   width="100%"
                   height="100%" />
              </g>
            </g>
          </g>
        </g>
        <g
           id="line2d_11"
           style="stroke-linecap:butt;stroke-linejoin:round"
           transform="translate(-27.563551,13.277356)">
          <path
             id="path6080"
             style="fill:none;stroke:#1f77b4;stroke-width:1.5;stroke-linecap:square;stroke-linejoin:round"
             d="m 69.218182,242.11636 33.818178,-108.68593 33.81818,-48.927019 33.81819,-27.709702 33.81818,-9.79212 33.81818,-1.858578 33.81818,-0.478509 33.81818,-0.217509 33.81819,-0.0034 h 33.81818"
             clip-path="url(#p4e6eb9d535)"
             inkscape:connector-curvature="0" />
        </g>
        <g
           id="line2d_12"
           style="stroke-linecap:butt;stroke-linejoin:round"
           transform="translate(-27.563551,13.277356)">
          <defs
             id="defs6084">
            <path
               style="stroke:#ff0000;stroke-linecap:butt;stroke-linejoin:round"
               id="path6370"
               d="M 0,3 C 0.795609,3 1.55874,2.683901 2.12132,2.12132 2.683901,1.55874 3,0.795609 3,0 3,-0.795609 2.683901,-1.55874 2.12132,-2.12132 1.55874,-2.683901 0.795609,-3 0,-3 -0.795609,-3 -1.55874,-2.683901 -2.12132,-2.12132 -2.683901,-1.55874 -3,-0.795609 -3,0 -3,0.795609 -2.683901,1.55874 -2.12132,2.12132 -1.55874,2.683901 -0.795609,3 0,3 Z"
               inkscape:connector-curvature="0" />
          </defs>
          <g
             id="g6088"
             clip-path="url(#p4e6eb9d535)"
             style="stroke-linecap:butt;stroke-linejoin:round">
            <use
               id="use6086"
               y="56.793709"
               xlink:href="#me7a54511e6"
               x="170.67273"
               style="fill:#ff0000;stroke:#ff0000;stroke-linecap:butt;stroke-linejoin:round"
               width="100%"
               height="100%" />
          </g>
        </g>
        <g
           id="patch_3"
           style="stroke-linecap:butt;stroke-linejoin:round"
           transform="translate(-27.563551,13.277356)">
          <path
             id="path6091"
             style="fill:none;stroke:#000000;stroke-width:0.80000001;stroke-linecap:square;stroke-linejoin:miter"
             d="M 54,252 V 34.56"
             inkscape:connector-curvature="0" />
        </g>
        <g
           id="patch_4"
           style="stroke-linecap:butt;stroke-linejoin:round"
           transform="translate(-27.563551,13.277356)">
          <path
             id="path6094"
             style="fill:none;stroke:#000000;stroke-width:0.80000001;stroke-linecap:square;stroke-linejoin:miter"
             d="M 388.8,252 V 34.56"
             inkscape:connector-curvature="0" />
        </g>
        <g
           id="patch_5"
           style="stroke-linecap:butt;stroke-linejoin:round"
           transform="translate(-27.563551,13.277356)">
          <path
             id="path6097"
             style="fill:none;stroke:#000000;stroke-width:0.80000001;stroke-linecap:square;stroke-linejoin:miter"
             d="M 54,252 H 388.8"
             inkscape:connector-curvature="0" />
        </g>
        <g
           id="patch_6"
           style="stroke-linecap:butt;stroke-linejoin:round"
           transform="translate(-27.563551,13.277356)">
          <path
             id="path6100"
             style="fill:none;stroke:#000000;stroke-width:0.80000001;stroke-linecap:square;stroke-linejoin:miter"
             d="M 54,34.56 H 388.8"
             inkscape:connector-curvature="0" />
        </g>
      </g>
      <flowRoot
         xml:space="preserve"
         id="flowRoot6388"
         style="font-style:normal;font-weight:normal;font-size:40px;line-height:1.25;font-family:sans-serif;letter-spacing:0px;word-spacing:0px;fill:#000000;fill-opacity:1;stroke:none;stroke-linecap:butt;stroke-linejoin:round"
         transform="matrix(0.75,0,0,0.75,-1.2307687,-5.216e-7)"><flowRegion
           id="flowRegion6390"
           style="stroke-linecap:butt;stroke-linejoin:round"><rect
             id="rect6392"
             width="66.871796"
             height="42.256409"
             x="251.48718"
             y="177.64102"
             style="stroke-linecap:butt;stroke-linejoin:round" /></flowRegion><flowPara
           id="flowPara6394"
           style="stroke-linecap:butt;stroke-linejoin:round">0.973</flowPara></flowRoot>      <text
         xml:space="preserve"
         style="font-style:normal;font-weight:normal;font-size:15.06777287px;line-height:1.25;font-family:sans-serif;letter-spacing:0px;word-spacing:0px;fill:#000000;fill-opacity:1;stroke:none;stroke-width:0.37669429;stroke-linecap:butt;stroke-linejoin:round"
         x="188.12134"
         y="74.887306"
         id="text6398"
         transform="scale(0.95904986,1.0426987)"><tspan
           sodipodi:role="line"
           id="tspan6396"
           style="font-style:normal;font-variant:normal;font-weight:normal;font-stretch:normal;font-family:'Berenis ADF Pro';-inkscape-font-specification:'Berenis ADF Pro';stroke-width:0.37669429;stroke-linecap:butt;stroke-linejoin:round"
           x="188.12134"
           y="74.887306">0.973</tspan></text>
      <flowRoot
         xml:space="preserve"
         id="flowRoot6722"
         style="font-style:normal;font-weight:normal;font-size:21.33333397px;line-height:1;font-family:sans-serif;letter-spacing:0px;word-spacing:0px;fill:#000000;fill-opacity:1;stroke:none;stroke-linecap:butt;stroke-linejoin:round"
         transform="matrix(0.75,0,0,0.75,-37.717148,87.959487)"><flowRegion
           id="flowRegion6724"
           style="stroke-linecap:butt;stroke-linejoin:round"><rect
             id="rect6726"
             width="602.23749"
             height="49.316162"
             x="194.36371"
             y="-102.77956"
             style="stroke-linecap:butt;stroke-linejoin:round" /></flowRegion><flowPara
           style="font-style:normal;font-variant:normal;font-weight:normal;font-stretch:normal;font-family:'Berenis ADF Pro';-inkscape-font-specification:'Berenis ADF Pro';stroke-linecap:butt;stroke-linejoin:round"
           id="flowPara6778">Cumulative Explained Variance vs. </flowPara><flowPara
           style="font-style:normal;font-variant:normal;font-weight:normal;font-stretch:normal;font-family:'Berenis ADF Pro';-inkscape-font-specification:'Berenis ADF Pro';stroke-linecap:butt;stroke-linejoin:round"
           id="flowPara6782">Number of PCA Components</flowPara></flowRoot>      <flowRoot
         xml:space="preserve"
         id="flowRoot6722-0"
         style="font-style:normal;font-weight:normal;font-size:21.33333397px;line-height:1;font-family:sans-serif;letter-spacing:0px;word-spacing:0px;fill:#000000;fill-opacity:1;stroke:none;stroke-linecap:butt;stroke-linejoin:round"
         transform="matrix(-0.00184668,-0.74999773,0.74999772,-0.00184668,109.70321,346.70698)"><flowRegion
           id="flowRegion6724-5"
           style="stroke-linecap:butt;stroke-linejoin:round"><rect
             id="rect6726-6"
             width="602.23749"
             height="49.316162"
             x="194.36371"
             y="-102.77956"
             style="stroke-linecap:butt;stroke-linejoin:round" /></flowRegion><flowPara
           id="flowPara6728-6"
           style="font-style:normal;font-variant:normal;font-weight:normal;font-stretch:normal;font-family:'Berenis ADF Pro';-inkscape-font-specification:'Berenis ADF Pro';stroke-linecap:butt;stroke-linejoin:round">Variance Explained</flowPara></flowRoot>      <flowRoot
         xml:space="preserve"
         id="flowRoot6722-00"
         style="font-style:normal;font-weight:normal;font-size:21.33333397px;line-height:1;font-family:sans-serif;letter-spacing:0px;word-spacing:0px;fill:#000000;fill-opacity:1;stroke:none;stroke-linecap:butt;stroke-linejoin:round"
         transform="matrix(0.75,0,0,0.75,-38.941568,341.7159)"><flowRegion
           id="flowRegion6724-4"
           style="stroke-linecap:butt;stroke-linejoin:round"><rect
             id="rect6726-62"
             width="602.23749"
             height="49.316162"
             x="194.36371"
             y="-102.77956"
             style="stroke-linecap:butt;stroke-linejoin:round" /></flowRegion><flowPara
           id="flowPara6728-67"
           style="font-style:normal;font-variant:normal;font-weight:normal;font-stretch:normal;font-family:'Berenis ADF Pro';-inkscape-font-specification:'Berenis ADF Pro';stroke-linecap:butt;stroke-linejoin:round">Number of PCA Components</flowPara></flowRoot>    </g>
  </g>
</svg>
